<?xml version="1.0" encoding="UTF-8" standalone="no"?>
<!-- Created with Inkscape (http://www.inkscape.org/) -->

<svg
   version="1.1"
   id="svg1"
   width="1280"
   height="1423.9948"
   viewBox="0 0 1280 1423.9948"
   sodipodi:docname="KonosuPlus_node.svg"
   inkscape:version="1.4 (86a8ad7, 2024-10-11)"
   xmlns:inkscape="http://www.inkscape.org/namespaces/inkscape"
   xmlns:sodipodi="http://sodipodi.sourceforge.net/DTD/sodipodi-0.dtd"
   xmlns="http://www.w3.org/2000/svg"
   xmlns:svg="http://www.w3.org/2000/svg">
  <defs
     id="defs1">
    <inkscape:path-effect
       effect="fillet_chamfer"
       id="path-effect1"
       is_visible="true"
       lpeversion="1"
       nodesatellites_param="F,0,0,1,0,159.47495,0,1 @ F,0,0,1,0,159.47495,0,1 @ F,0,0,1,0,159.47495,0,1 @ F,0,0,1,0,159.47495,0,1 @ F,0,0,1,0,159.47495,0,1 @ F,0,0,1,0,159.47495,0,1 @ F,0,0,1,0,159.47495,0,1"
       radius="90"
       unit="px"
       method="auto"
       mode="F"
       chamfer_steps="1"
       flexible="false"
       use_knot_distance="true"
       apply_no_radius="true"
       apply_with_radius="true"
       only_selected="false"
       hide_knots="false" />
    <rect
       x="274.57812"
       y="1738.155"
       width="1735.6359"
       height="302.28781"
       id="rect3746" />
    <rect
       x="641.24933"
       y="1781.248"
       width="689.34302"
       height="206.62479"
       id="rect3745" />
    <rect
       x="236.79213"
       y="1647.4686"
       width="1113.4268"
       height="347.63101"
       id="rect3744" />
    <rect
       x="166.2583"
       y="1692.8118"
       width="1869.1464"
       height="261.98279"
       id="rect3743" />
    <rect
       x="-418.16483"
       y="1718.0024"
       width="665.0332"
       height="272.05905"
       id="rect3742" />
  </defs>
  <sodipodi:namedview
     id="namedview1"
     pagecolor="#ffffff"
     bordercolor="#000000"
     borderopacity="0.25"
     inkscape:showpageshadow="2"
     inkscape:pageopacity="0.0"
     inkscape:pagecheckerboard="0"
     inkscape:deskcolor="#d1d1d1"
     showgrid="false"
     inkscape:zoom="0.39697266"
     inkscape:cx="857.74169"
     inkscape:cy="857.74169"
     inkscape:window-width="1920"
     inkscape:window-height="1094"
     inkscape:window-x="-11"
     inkscape:window-y="-11"
     inkscape:window-maximized="1"
     inkscape:current-layer="svg1" />
  <path
     id="path3741"
     style="fill:#a6c48a;fill-opacity:1"
     inkscape:transform-center-x="0.27844228"
     inkscape:transform-center-y="-33.588349"
     transform="matrix(0.55320342,0,0,0.563114,517.56131,544.26783)"
     d="M -406.52463,1180.0082 -863.70831,604.52256 a 331.15313,331.15313 77.249565 0 1 -63.42261,-280.27772 l 164.88345,-716.25005 a 331.15315,331.15315 128.67814 0 1 179.5866,-224.33609 L 80.129126,-934.00483 a 331.15316,331.15316 0.10670829 0 1 287.363434,0.53519 l 661.60214,320.13011 a 331.15311,331.15311 51.535282 0 1 178.7498,225.00346 l 162.2143,716.85926 a 331.15318,331.15318 102.96385 0 1 -64.4661,280.03954 L 846.26858,1182.3415 a 331.15313,331.15313 154.39242 0 1 -259.13771,124.2001 l -734.9822,-1.3689 a 331.15317,331.15317 25.820995 0 1 -258.6733,-125.1645 z"
     inkscape:path-effect="#path-effect1"
     inkscape:original-d="M -307.326,1304.8757 -962.90694,479.65506 -726.47145,-547.41543 223.93971,-1002.9307 1172.6476,-543.87847 1405.2557,484.06559 746.60554,1306.8386 Z" />
  <g
     inkscape:groupmode="layer"
     inkscape:label="Image"
     id="g1"
     transform="translate(-394.09027,-305.25225)">
    <path
       style="fill:#3c8b94;fill-opacity:1;stroke-width:1.78125"
       d="m 815.09369,1529.2724 c -11.13417,-106.4818 -7.18271,-214.3142 -21.65701,-320.5103 3.43705,-51.1648 -90.15986,-5.3652 -80.50681,-26.1452 71.47035,-35.8772 136.24349,-91.762 172.53047,-163.7157 -33.15503,19.5699 -72.5036,67.3031 -112.41898,92.2145 -73.52526,54.7938 -158.67463,90.871 -244.09871,122.5706 -8.81811,-36.071 5.09418,-78.4333 9.79203,-116.2132 21.04039,-121.32024 78.8076,-243.56163 187.59284,-309.08205 52.52764,-35.80298 115.93021,-46.94855 176.7471,-59.36014 38.75605,-30.07336 -9.86407,-81.93979 -20.48883,-116.64869 -32.28027,-59.32015 -51.07882,-142.58765 -0.60248,-197.74188 49.75067,-58.39899 149.12219,-32.88644 182.79569,30.43486 21.6831,41.87223 49.9286,79.9946 92.0204,103.29026 61.6792,45.58844 125.4791,88.62147 185.4129,136.38253 -23.638,12.70079 -81.1858,-32.75704 -116.6221,-42.69045 -79.6915,-33.99717 -158.1467,-78.09972 -244.85049,-89.27756 -20.1362,41.86581 28.44329,82.14302 44.03769,119.92288 54.762,90.80951 63.3655,212.81922 2.5939,303.02946 -37.23228,58.67738 -92.5551,104.34278 -153.66163,136.35208 -27.07753,38.4835 -33.4918,89.653 -38.61708,135.9125 -2.80574,86.0685 -0.88981,172.4985 -4.93275,258.3133 1.811,15.4904 -15.16848,23.9515 -15.06615,2.9622 z M 1015.9437,493.33629 c 36.2254,-29.21223 -34.31634,-57.7254 -24.11139,-9.359 1.43448,10.77865 15.73759,14.50135 24.11139,9.359 z"
       id="path3739" />
    <path
       style="color:#000000;font-style:normal;font-variant:normal;font-weight:normal;font-stretch:normal;font-size:medium;line-height:normal;font-family:sans-serif;font-variant-ligatures:normal;font-variant-position:normal;font-variant-caps:normal;font-variant-numeric:normal;font-variant-alternates:normal;font-variant-east-asian:normal;font-feature-settings:normal;font-variation-settings:normal;text-indent:0;text-align:start;text-decoration-line:none;text-decoration-style:solid;text-decoration-color:#000000;letter-spacing:normal;word-spacing:normal;text-transform:none;writing-mode:lr-tb;direction:ltr;text-orientation:mixed;dominant-baseline:auto;baseline-shift:baseline;text-anchor:start;white-space:normal;shape-padding:0;shape-margin:0;inline-size:0;clip-rule:nonzero;display:inline;overflow:visible;visibility:visible;isolation:auto;mix-blend-mode:normal;color-interpolation:sRGB;color-interpolation-filters:linearRGB;solid-color:#000000;solid-opacity:1;vector-effect:none;fill:#e27a6b;fill-opacity:1;fill-rule:nonzero;stroke:none;stroke-width:1.05195;stroke-linecap:butt;stroke-linejoin:miter;stroke-miterlimit:4;stroke-dasharray:none;stroke-dashoffset:0;stroke-opacity:1;-inkscape-stroke:none;color-rendering:auto;image-rendering:auto;shape-rendering:auto;text-rendering:auto;enable-background:accumulate;stop-color:#000000"
       d="m 1323.7056,1195.3087 c -3.0842,-0.6669 -6.6174,-3.3332 -7.8525,-5.9253 -1.2349,-2.5922 -2.8389,-30.6406 -3.5645,-62.33 l -1.3187,-57.6172 -59.4605,-0.7197 -60.9036,-1.9213 c -5.0469,-0.1592 -8.6115,-16.1341 -8.3403,-46.7527 0.2623,-29.57552 1.0139,-35.55402 4.982,-39.61672 4.1272,-4.2257 11.6274,-4.9413 64.1978,-6.1246 l 59.5246,-1.34 1.31,-59.49934 c 0.9645,-43.80616 2.2097,-60.41655 4.7208,-62.97681 4.9546,-5.05184 76.6387,-4.91423 82.6107,0.1586 3.6832,3.12846 4.3792,11.91958 4.9853,62.97681 l 0.7044,59.34074 58.2146,1.34 c 49.9054,1.1486 58.8426,1.9831 62.6144,5.8461 8.5392,8.7458 7.992,75.07162 -0.693,83.95372 -3.2164,3.2896 -13.7325,3.9952 -59.5318,3.9952 -39.7706,0 -56.5219,0.9167 -58.7702,3.2159 -2.2439,2.2951 -3.1441,19.176 -3.1441,58.957 0,68.3658 0.9289,66.4414 -32.0989,66.4973 -11.8897,0.02 -24.439,-0.6713 -27.3214,-0.095 -6.9335,-0.075 -13.9685,-0.2882 -20.8651,-1.3637 z"
       id="path3740-5"
       sodipodi:nodetypes="sssccsssscsssscsssssssss" />
    <text
       xml:space="preserve"
       id="text3742"
       style="text-align:start;writing-mode:lr-tb;direction:ltr;white-space:pre;shape-inside:url(#rect3742);display:inline;fill:#88b763;fill-opacity:1" />
    <text
       xml:space="preserve"
       id="text3743"
       style="text-align:start;writing-mode:lr-tb;direction:ltr;white-space:pre;shape-inside:url(#rect3743);display:inline;fill:#88b763;fill-opacity:1" />
    <text
       xml:space="preserve"
       id="text3744"
       style="text-align:start;writing-mode:lr-tb;direction:ltr;white-space:pre;shape-inside:url(#rect3744);display:inline;fill:#88b763;fill-opacity:1" />
    <text
       xml:space="preserve"
       id="text3745"
       style="text-align:start;writing-mode:lr-tb;direction:ltr;white-space:pre;shape-inside:url(#rect3745);display:inline;fill:#88b763;fill-opacity:1" />
    <g
       id="text3746"
       style="font-weight:bold;font-size:160px;font-family:'Rounded Mplus 1c Bold';-inkscape-font-specification:'Rounded Mplus 1c Bold, Bold';white-space:pre;fill:#d94c48"
       transform="translate(262.35994,-188.00724)"
       aria-label="KonosuPlus">
      <path
         style="font-size:180px;fill:#3c8b94"
         d="m 298.87812,1915.4543 q -4.13999,0 -7.19999,-3.06 -2.88,-3.06 -2.88,-7.2 v -110.88 q 0,-4.14 2.88,-7.2 3.06,-3.06 7.19999,-3.06 h 4.86001 q 4.13999,0 7.2,3.06 3.06,3.06 3.06,7.2 v 46.62 q 0,0.18 0.18,0.18 0.17999,0 0.17999,-0.18 l 36.18,-48.6 q 5.94,-8.28 16.2,-8.28 h 9.00001 q 3.06,0 4.49999,2.88 1.44001,2.88 -0.54,5.22 l -41.39999,53.64 q -0.90001,1.26 0,2.52 l 43.38,58.86 q 1.97999,2.52 0.53999,5.4 -1.44,2.88 -4.67999,2.88 h -9 q -10.26001,0 -16.02001,-8.28 l -38.16,-54 q 0,-0.18 -0.17999,-0.18 -0.18,0 -0.18,0.18 v 52.02 q 0,4.14 -3.06,7.2 -3.06001,3.06 -7.2,3.06 z m 147.59999,-70.38 q -5.22,-7.56 -15.84,-7.56 -10.62,0 -16.02,7.56 -5.22,7.38 -5.22,23.58 0,16.2 5.22,23.76 5.4,7.38 16.02,7.38 10.62,0 15.84,-7.38 5.4,-7.56 5.4,-23.76 0,-16.2 -5.4,-23.58 z m 17.64,59.58 q -11.88,12.6 -33.48,12.6 -21.6,0 -33.66,-12.6 -11.88,-12.78 -11.88,-36 0,-23.22 11.88,-35.82 12.06,-12.78 33.66,-12.78 21.6,0 33.48,12.78 12.06,12.6 12.06,35.82 0,23.22 -12.06,36 z m 40.85989,10.8 q -4.14,0 -7.2,-3.06 -3.06,-3.06 -3.06,-7.2 v -73.08 q 0,-4.14 3.06,-7.2 3.06,-3.06 7.2,-3.06 h 2.34 q 4.32,0 7.2,3.06 3.06,2.88 3.24,7.2 v 1.26 q 0,0.18 0.18,0.18 0.18,0 0.36,-0.18 12.24,-13.32 28.62,-13.32 16.38,0 23.76,9.36 7.56,9.18 7.56,30.78 v 45 q 0,4.14 -3.06,7.2 -3.06,3.06 -7.2,3.06 h -3.06 q -4.14,0 -7.2,-3.06 -2.88,-3.06 -2.88,-7.2 v -43.2 q 0,-13.5 -3.6,-18.36 -3.42,-5.04 -12.42,-5.04 -7.38,0 -13.68,6.3 -6.3,6.3 -6.3,13.5 v 46.8 q 0,4.14 -3.06,7.2 -3.06,3.06 -7.2,3.06 z m 152.28003,-70.38 q -5.22,-7.56 -15.84,-7.56 -10.62,0 -16.02,7.56 -5.22,7.38 -5.22,23.58 0,16.2 5.22,23.76 5.4,7.38 16.02,7.38 10.62,0 15.84,-7.38 5.4,-7.56 5.4,-23.76 0,-16.2 -5.4,-23.58 z m 17.64,59.58 q -11.88,12.6 -33.48,12.6 -21.6,0 -33.66,-12.6 -11.88,-12.78 -11.88,-36 0,-23.22 11.88,-35.82 12.06,-12.78 33.66,-12.78 21.6,0 33.48,12.78 12.06,12.6 12.06,35.82 0,23.22 -12.06,36 z m 62.81988,-27 q -18.9,-4.14 -27,-11.34 -7.92,-7.2 -7.92,-18.72 0,-12.96 9.54,-20.16 9.72,-7.38 28.62,-7.38 11.88,0 23.58,2.16 3.96,0.72 6.3,3.96 2.52,3.06 2.52,7.2 0,3.42 -2.7,5.58 -2.7,1.98 -6.12,1.08 -10.08,-2.52 -21.24,-2.52 -16.2,0 -16.2,9 0,4.32 3.06,7.2 3.06,2.88 10.44,4.5 20.7,4.14 28.26,11.16 7.74,7.02 7.74,20.52 0,12.96 -9.72,20.16 -9.72,7.2 -28.26,7.2 -12.06,0 -24.66,-2.88 -3.96,-0.9 -6.48,-4.14 -2.52,-3.42 -2.52,-7.74 0,-3.42 2.7,-5.22 2.88,-1.8 6.12,-0.9 11.7,3.24 22.14,3.24 16.38,0 16.38,-9.72 0,-4.68 -3.24,-7.38 -3.06,-2.7 -11.34,-4.86 z m 90.35996,39.6 q -15.84,0 -23.04,-8.64 -7.2,-8.82 -7.2,-29.7 v -46.8 q 0,-4.14 3.06,-7.2 3.06,-3.06 7.2,-3.06 h 2.88 q 4.14,0 7.2,3.06 3.06,3.06 3.06,7.2 v 44.28 q 0,12.6 3.42,17.46 3.42,4.86 11.52,4.86 7.38,0 13.68,-6.3 6.48,-6.3 6.48,-13.5 v -46.8 q 0,-4.14 3.06,-7.2 3.06,-3.06 7.2,-3.06 h 3.6 q 4.14,0 7.02,3.06 3.06,3.06 3.06,7.2 v 73.08 q 0,4.14 -3.06,7.2 -2.88,3.06 -7.02,3.06 h -2.34 q -4.32,0 -7.38,-2.88 -2.88,-3.06 -3.06,-7.38 l -0.18,-1.26 q 0,-0.18 -0.18,-0.18 -0.18,0 -0.36,0.18 -12.24,13.32 -28.62,13.32 z"
         id="path1" />
      <path
         style="font-size:180px;fill:#e27a6b"
         d="m 931.75775,1804.5743 v 43.38 q 0,1.26 1.44,1.62 6.84,0.9 13.32,0.9 14.58,0 22.14,-6.3 7.74,-6.48 7.74,-18.36 0,-23.94 -29.88,-23.94 -6.48,0 -13.32,0.9 -1.44,0.36 -1.44,1.8 z m -14.76,110.88 q -4.14,0 -7.2,-3.06 -2.88,-3.06 -2.88,-7.2 v -109.98 q 0,-4.32 2.88,-7.74 2.88,-3.42 7.2,-3.78 15.3,-1.44 29.52,-1.44 27,0 40.5,10.8 13.50005,10.62 13.50005,30.96 0,22.5 -13.14005,34.02 -12.96,11.52 -38.52,11.52 -5.94,0 -15.66,-0.72 -1.44,0 -1.44,1.44 v 34.92 q 0,4.14 -3.06,7.2 -3.06,3.06 -7.2,3.06 z m 116.82015,0 q -4.14,0 -7.2,-3.06 -3.06,-3.06 -3.06,-7.2 v -114.48 q 0,-4.14 3.06,-7.2 3.06,-3.06 7.2,-3.06 h 4.68 q 4.14,0 7.2,3.06 3.06,3.06 3.06,7.2 v 114.48 q 0,4.14 -3.06,7.2 -3.06,3.06 -7.2,3.06 z m 74.5198,1.8 q -15.84,0 -23.04,-8.64 -7.2,-8.82 -7.2,-29.7 v -46.8 q 0,-4.14 3.06,-7.2 3.06,-3.06 7.2,-3.06 h 2.88 q 4.14,0 7.2,3.06 3.06,3.06 3.06,7.2 v 44.28 q 0,12.6 3.42,17.46 3.42,4.86 11.52,4.86 7.38,0 13.68,-6.3 6.48,-6.3 6.48,-13.5 v -46.8 q 0,-4.14 3.06,-7.2 3.06,-3.06 7.2,-3.06 h 3.6 q 4.14,0 7.02,3.06 3.06,3.06 3.06,7.2 v 73.08 q 0,4.14 -3.06,7.2 -2.88,3.06 -7.02,3.06 h -2.34 q -4.32,0 -7.38,-2.88 -2.88,-3.06 -3.06,-7.38 l -0.18,-1.26 q 0,-0.18 -0.18,-0.18 -0.18,0 -0.36,0.18 -12.24,13.32 -28.62,13.32 z m 109.2599,-39.6 q -18.9,-4.14 -27,-11.34 -7.92,-7.2 -7.92,-18.72 0,-12.96 9.54,-20.16 9.72,-7.38 28.62,-7.38 11.88,0 23.58,2.16 3.96,0.72 6.3,3.96 2.52,3.06 2.52,7.2 0,3.42 -2.7,5.58 -2.7,1.98 -6.12,1.08 -10.08,-2.52 -21.24,-2.52 -16.2,0 -16.2,9 0,4.32 3.06,7.2 3.06,2.88 10.44,4.5 20.7,4.14 28.26,11.16 7.74,7.02 7.74,20.52 0,12.96 -9.72,20.16 -9.72,7.2 -28.26,7.2 -12.06,0 -24.66,-2.88 -3.96,-0.9 -6.48,-4.14 -2.52,-3.42 -2.52,-7.74 0,-3.42 2.7,-5.22 2.88,-1.8 6.12,-0.9 11.7,3.24 22.14,3.24 16.38,0 16.38,-9.72 0,-4.68 -3.24,-7.38 -3.06,-2.7 -11.34,-4.86 z"
         id="path2" />
    </g>
    <text
       xml:space="preserve"
       style="font-style:normal;font-variant:normal;font-weight:normal;font-stretch:normal;font-size:192px;font-family:'Lucida Console';-inkscape-font-specification:'Lucida Console, Normal';font-variant-ligatures:normal;font-variant-caps:normal;font-variant-numeric:normal;font-variant-east-asian:normal;text-align:start;writing-mode:lr-tb;direction:ltr;text-anchor:start;fill:#88b763;fill-opacity:1"
       x="2483.7983"
       y="2050.519"
       id="text3747"><tspan
         sodipodi:role="line"
         id="tspan3747"
         x="2483.7983"
         y="2050.519" /></text>
  </g>
</svg>
