<?xml version="1.0" encoding="UTF-8" standalone="no"?>
<!-- Created with Inkscape (http://www.inkscape.org/) -->

<svg
   version="1.1"
   id="svg1"
   width="1689.6425"
   height="307.64084"
   viewBox="0 0 1689.6425 307.64084"
   sodipodi:docname="KonosuPlus_node_yoko.svg"
   inkscape:version="1.4 (86a8ad7, 2024-10-11)"
   xmlns:inkscape="http://www.inkscape.org/namespaces/inkscape"
   xmlns:sodipodi="http://sodipodi.sourceforge.net/DTD/sodipodi-0.dtd"
   xmlns="http://www.w3.org/2000/svg"
   xmlns:svg="http://www.w3.org/2000/svg">
  <defs
     id="defs1">
    <inkscape:path-effect
       effect="fillet_chamfer"
       id="path-effect1"
       is_visible="true"
       lpeversion="1"
       nodesatellites_param="F,0,0,1,0,159.47495,0,1 @ F,0,0,1,0,159.47495,0,1 @ F,0,0,1,0,159.47495,0,1 @ F,0,0,1,0,159.47495,0,1 @ F,0,0,1,0,159.47495,0,1 @ F,0,0,1,0,159.47495,0,1 @ F,0,0,1,0,159.47495,0,1"
       radius="90"
       unit="px"
       method="auto"
       mode="F"
       chamfer_steps="1"
       flexible="false"
       use_knot_distance="true"
       apply_no_radius="true"
       apply_with_radius="true"
       only_selected="false"
       hide_knots="false" />
    <rect
       x="274.57812"
       y="1738.155"
       width="1735.6359"
       height="302.28781"
       id="rect3746" />
    <rect
       x="641.24933"
       y="1781.248"
       width="689.34302"
       height="206.62479"
       id="rect3745" />
    <rect
       x="236.79213"
       y="1647.4686"
       width="1113.4268"
       height="347.63101"
       id="rect3744" />
    <rect
       x="166.2583"
       y="1692.8118"
       width="1869.1464"
       height="261.98279"
       id="rect3743" />
    <rect
       x="-418.16483"
       y="1718.0024"
       width="665.0332"
       height="272.05905"
       id="rect3742" />
  </defs>
  <sodipodi:namedview
     id="namedview1"
     pagecolor="#ffffff"
     bordercolor="#000000"
     borderopacity="0.25"
     inkscape:showpageshadow="2"
     inkscape:pageopacity="0.0"
     inkscape:pagecheckerboard="0"
     inkscape:deskcolor="#d1d1d1"
     showgrid="false"
     inkscape:zoom="0.39697266"
     inkscape:cx="1126.0221"
     inkscape:cy="245.60885"
     inkscape:window-width="1920"
     inkscape:window-height="1094"
     inkscape:window-x="-11"
     inkscape:window-y="-11"
     inkscape:window-maximized="1"
     inkscape:current-layer="svg1" />
  <path
     id="path3741"
     style="fill:#a6c48a;fill-opacity:1"
     inkscape:transform-center-x="0.066963135"
     inkscape:transform-center-y="-8.0727596"
     transform="matrix(0.13295935,0,0,0.1353413,124.39297,130.81173)"
     d="M -406.52463,1180.0082 -863.70831,604.52256 a 331.15313,331.15313 77.249565 0 1 -63.42261,-280.27772 l 164.88345,-716.25005 a 331.15315,331.15315 128.67814 0 1 179.5866,-224.33609 L 80.129126,-934.00483 a 331.15316,331.15316 0.10670829 0 1 287.363434,0.53519 l 661.60214,320.13011 a 331.15311,331.15311 51.535282 0 1 178.7498,225.00346 l 162.2143,716.85926 a 331.15318,331.15318 102.96385 0 1 -64.4661,280.03954 L 846.26858,1182.3415 a 331.15313,331.15313 154.39242 0 1 -259.13771,124.2001 l -734.9822,-1.3689 a 331.15317,331.15317 25.820995 0 1 -258.6733,-125.1645 z"
     inkscape:path-effect="#path-effect1"
     inkscape:original-d="M -307.326,1304.8757 -962.90694,479.65506 -726.47145,-547.41543 223.93971,-1002.9307 1172.6476,-543.87847 1405.2557,484.06559 746.60554,1306.8386 Z" />
  <g
     inkscape:groupmode="layer"
     inkscape:label="Image"
     id="g1"
     transform="translate(-124.18371,-918.05667)">
    <path
       style="fill:#3c8b94;fill-opacity:1;stroke-width:0.428114"
       d="m 225.36958,1212.2431 c -2.6761,-25.5924 -1.7264,-51.5093 -5.2052,-77.0329 0.8261,-12.2971 -21.6694,-1.2895 -19.3493,-6.2839 17.1774,-8.6229 32.7453,-22.0544 41.4668,-39.3481 -7.9687,4.7036 -17.4258,16.176 -27.0194,22.1632 -17.6713,13.1694 -38.1365,21.8404 -58.6676,29.4592 -2.1194,-8.6695 1.2243,-18.851 2.3534,-27.9312 5.0568,-29.1586 18.9409,-58.5387 45.0868,-74.2861 12.6247,-8.6052 27.8632,-11.2839 42.4802,-14.267 9.3148,-7.2278 -2.3707,-19.6937 -4.9243,-28.03567 -7.7585,-14.2574 -12.2765,-34.2703 -0.1449,-47.52623 11.9574,-14.03588 35.8407,-7.90411 43.9339,7.31493 5.2114,10.0636 12.0001,19.2262 22.1167,24.8251 14.8242,10.9569 30.1582,21.29967 44.563,32.77877 -5.6813,3.0525 -19.5126,-7.873 -28.0295,-10.2604 -19.1535,-8.17097 -38.0097,-18.77087 -58.8486,-21.45737 -4.8395,10.0623 6.8363,19.74257 10.5842,28.82277 13.1619,21.8256 15.2296,51.1499 0.6235,72.8315 -8.9485,14.1028 -22.245,25.0782 -36.9317,32.7714 -6.5079,9.2493 -8.0495,21.5476 -9.2813,32.6658 -0.6744,20.6861 -0.2139,41.4591 -1.1856,62.0842 0.4352,3.723 -3.6457,5.7566 -3.6211,0.712 z m 48.2731,-248.98157 c 8.7066,-7.0209 -8.2477,-13.87391 -5.7949,-2.2493 0.3447,2.5907 3.7824,3.4853 5.7949,2.2493 z"
       id="path3739" />
    <path
       style="color:#000000;font-style:normal;font-variant:normal;font-weight:normal;font-stretch:normal;font-size:medium;line-height:normal;font-family:sans-serif;font-variant-ligatures:normal;font-variant-position:normal;font-variant-caps:normal;font-variant-numeric:normal;font-variant-alternates:normal;font-variant-east-asian:normal;font-feature-settings:normal;font-variation-settings:normal;text-indent:0;text-align:start;text-decoration-line:none;text-decoration-style:solid;text-decoration-color:#000000;letter-spacing:normal;word-spacing:normal;text-transform:none;writing-mode:lr-tb;direction:ltr;text-orientation:mixed;dominant-baseline:auto;baseline-shift:baseline;text-anchor:start;white-space:normal;shape-padding:0;shape-margin:0;inline-size:0;clip-rule:nonzero;display:inline;overflow:visible;visibility:visible;isolation:auto;mix-blend-mode:normal;color-interpolation:sRGB;color-interpolation-filters:linearRGB;solid-color:#000000;solid-opacity:1;vector-effect:none;fill:#e27a6b;fill-opacity:1;fill-rule:nonzero;stroke:none;stroke-width:0.252831;stroke-linecap:butt;stroke-linejoin:miter;stroke-miterlimit:4;stroke-dasharray:none;stroke-dashoffset:0;stroke-opacity:1;-inkscape-stroke:none;color-rendering:auto;image-rendering:auto;shape-rendering:auto;text-rendering:auto;enable-background:accumulate;stop-color:#000000"
       d="m 347.61168,1131.9767 c -0.7414,-0.1602 -1.5905,-0.8011 -1.8873,-1.4241 -0.2968,-0.623 -0.6824,-7.3643 -0.8568,-14.9806 l -0.317,-13.8481 -14.2909,-0.1729 -14.6379,-0.4618 c -1.2129,-0.038 -2.0696,-3.8777 -2.0045,-11.2367 0.063,-7.1083 0.2437,-8.5453 1.1974,-9.5217 0.992,-1.0156 2.7946,-1.1876 15.4295,-1.4719 l 14.3064,-0.3222 0.3149,-14.3002 c 0.2318,-10.5286 0.5311,-14.5209 1.1346,-15.1363 1.1909,-1.214 18.4198,-1.181 19.855,0.038 0.8853,0.752 1.0526,2.8648 1.1983,15.1362 l 0.1692,14.2622 13.9915,0.3221 c 11.9945,0.276 14.1426,0.4766 15.0491,1.4051 2.0524,2.102 1.9209,18.043 -0.1666,20.1777 -0.773,0.7907 -3.3004,0.9603 -14.308,0.9603 -9.5587,0 -13.5847,0.2203 -14.1252,0.7728 -0.5393,0.5517 -0.7557,4.6089 -0.7557,14.1701 0,16.4313 0.2234,15.9688 -7.7147,15.9822 -2.8577,0 -5.8738,-0.1612 -6.5666,-0.023 -1.6664,-0.018 -3.3573,-0.07 -5.0147,-0.3277 z"
       id="path3740-5"
       sodipodi:nodetypes="sssccsssscsssscsssssssss" />
    <text
       xml:space="preserve"
       id="text3742"
       style="text-align:start;writing-mode:lr-tb;direction:ltr;white-space:pre;shape-inside:url(#rect3742);display:inline;fill:#88b763;fill-opacity:1" />
    <text
       xml:space="preserve"
       id="text3743"
       style="text-align:start;writing-mode:lr-tb;direction:ltr;white-space:pre;shape-inside:url(#rect3743);display:inline;fill:#88b763;fill-opacity:1" />
    <text
       xml:space="preserve"
       id="text3744"
       style="text-align:start;writing-mode:lr-tb;direction:ltr;white-space:pre;shape-inside:url(#rect3744);display:inline;fill:#88b763;fill-opacity:1" />
    <text
       xml:space="preserve"
       id="text3745"
       style="text-align:start;writing-mode:lr-tb;direction:ltr;white-space:pre;shape-inside:url(#rect3745);display:inline;fill:#88b763;fill-opacity:1" />
    <g
       id="text3746"
       style="font-weight:bold;font-size:160px;font-family:'Rounded Mplus 1c Bold';-inkscape-font-specification:'Rounded Mplus 1c Bold, Bold';white-space:pre;fill:#d94c48"
       transform="matrix(1.5564344,0,0,1.5564344,28.008051,-1759.6357)"
       aria-label="KonosuPlus">
      <path
         style="fill:#3c8b94"
         d="m 296.17813,1895.7543 q -3.68,0 -6.40001,-2.72 -2.56,-2.72 -2.56,-6.4 v -98.56 q 0,-3.68 2.56,-6.4 2.72001,-2.72 6.40001,-2.72 h 4.32 q 3.68,0 6.39999,2.72 2.72001,2.72 2.72001,6.4 v 41.44 q 0,0.16 0.15999,0.16 0.16001,0 0.16001,-0.16 l 32.15999,-43.2 q 5.28,-7.36 14.40001,-7.36 h 8 q 2.71999,0 3.99999,2.56 1.28,2.56 -0.48,4.64 l -36.8,47.68 q -0.79999,1.12 0,2.24 l 38.56,52.32 q 1.76,2.24 0.48,4.8 -1.28,2.56 -4.16,2.56 h -8 q -9.12,0 -14.24,-7.36 l -33.91999,-48 q 0,-0.16 -0.16001,-0.16 -0.15999,0 -0.15999,0.16 v 46.24 q 0,3.68 -2.72001,6.4 -2.71999,2.72 -6.39999,2.72 z m 131.19998,-62.56 q -4.64,-6.72 -14.08,-6.72 -9.44,0 -14.24,6.72 -4.64,6.56 -4.64,20.96 0,14.4 4.64,21.12 4.8,6.56 14.24,6.56 9.44,0 14.08,-6.56 4.8,-6.72 4.8,-21.12 0,-14.4 -4.8,-20.96 z m 15.68,52.96 q -10.56,11.2 -29.76,11.2 -19.2,0 -29.92,-11.2 -10.56,-11.36 -10.56,-32 0,-20.64 10.56,-31.84 10.72,-11.36 29.92,-11.36 19.2,0 29.76,11.36 10.72,11.2 10.72,31.84 0,20.64 -10.72,32 z m 36.31991,9.6 q -3.68,0 -6.4,-2.72 -2.72,-2.72 -2.72,-6.4 v -64.96 q 0,-3.68 2.72,-6.4 2.72,-2.72 6.4,-2.72 h 2.08 q 3.84,0 6.4,2.72 2.72,2.56 2.88,6.4 v 1.12 q 0,0.16 0.16,0.16 0.16,0 0.32,-0.16 10.88,-11.84 25.44,-11.84 14.56,0 21.12,8.32 6.72,8.16 6.72,27.36 v 40 q 0,3.68 -2.72,6.4 -2.72,2.72 -6.4,2.72 h -2.72 q -3.68,0 -6.4,-2.72 -2.56,-2.72 -2.56,-6.4 v -38.4 q 0,-12 -3.2,-16.32 -3.04,-4.48 -11.04,-4.48 -6.56,0 -12.16,5.6 -5.6,5.6 -5.6,12 v 41.6 q 0,3.68 -2.72,6.4 -2.72,2.72 -6.4,2.72 z m 135.36002,-62.56 q -4.64,-6.72 -14.08,-6.72 -9.44,0 -14.24,6.72 -4.64,6.56 -4.64,20.96 0,14.4 4.64,21.12 4.8,6.56 14.24,6.56 9.44,0 14.08,-6.56 4.8,-6.72 4.8,-21.12 0,-14.4 -4.8,-20.96 z m 15.68,52.96 q -10.56,11.2 -29.76,11.2 -19.2,0 -29.92,-11.2 -10.56,-11.36 -10.56,-32 0,-20.64 10.56,-31.84 10.72,-11.36 29.92,-11.36 19.2,0 29.76,11.36 10.72,11.2 10.72,31.84 0,20.64 -10.72,32 z m 55.8399,-24 q -16.8,-3.68 -24,-10.08 -7.04,-6.4 -7.04,-16.64 0,-11.52 8.48,-17.92 8.64,-6.56 25.44,-6.56 10.56,0 20.96,1.92 3.52,0.64 5.6,3.52 2.24,2.72 2.24,6.4 0,3.04 -2.4,4.96 -2.4,1.76 -5.44,0.96 -8.96,-2.24 -18.88,-2.24 -14.4,0 -14.4,8 0,3.84 2.72,6.4 2.72,2.56 9.28,4 18.4,3.68 25.12,9.92 6.88,6.24 6.88,18.24 0,11.52 -8.64,17.92 -8.64,6.4 -25.12,6.4 -10.72,0 -21.92,-2.56 -3.52,-0.8 -5.76,-3.68 -2.24,-3.04 -2.24,-6.88 0,-3.04 2.4,-4.64 2.56,-1.6 5.44,-0.8 10.4,2.88 19.68,2.88 14.56,0 14.56,-8.64 0,-4.16 -2.88,-6.56 -2.72,-2.4 -10.08,-4.32 z m 80.31995,35.2 q -14.08,0 -20.48,-7.68 -6.4,-7.84 -6.4,-26.4 v -41.6 q 0,-3.68 2.72,-6.4 2.72,-2.72 6.4,-2.72 h 2.56 q 3.68,0 6.4,2.72 2.72,2.72 2.72,6.4 v 39.36 q 0,11.2 3.04,15.52 3.04,4.32 10.24,4.32 6.56,0 12.16,-5.6 5.76,-5.6 5.76,-12 v -41.6 q 0,-3.68 2.72,-6.4 2.72,-2.72 6.4,-2.72 h 3.2 q 3.68,0 6.24,2.72 2.72,2.72 2.72,6.4 v 64.96 q 0,3.68 -2.72,6.4 -2.56,2.72 -6.24,2.72 h -2.08 q -3.84,0 -6.56,-2.56 -2.56,-2.72 -2.72,-6.56 l -0.16,-1.12 q 0,-0.16 -0.16,-0.16 -0.16,0 -0.32,0.16 -10.88,11.84 -25.44,11.84 z"
         id="path1" />
      <path
         style="fill:#e27a6b"
         d="m 858.73782,1797.1943 v 38.56 q 0,1.12 1.28,1.44 6.08,0.8 11.84,0.8 12.96,0 19.68,-5.6 6.88,-5.76 6.88,-16.32 0,-21.28 -26.56,-21.28 -5.76,0 -11.84,0.8 -1.28,0.32 -1.28,1.6 z m -13.12,98.56 q -3.68,0 -6.4,-2.72 -2.56,-2.72 -2.56,-6.4 v -97.76 q 0,-3.84 2.56,-6.88 2.56,-3.04 6.4,-3.36 13.6,-1.28 26.24,-1.28 24,0 36,9.6 12,9.44 12,27.52 0,20 -11.68,30.24 -11.52,10.24 -34.24,10.24 -5.28,0 -13.92,-0.64 -1.28,0 -1.28,1.28 v 31.04 q 0,3.68 -2.72,6.4 -2.72,2.72 -6.4,2.72 z m 103.84004,0 q -3.68,0 -6.4,-2.72 -2.72,-2.72 -2.72,-6.4 v -101.76 q 0,-3.68 2.72,-6.4 2.72,-2.72 6.4,-2.72 h 4.16 q 3.68,0 6.4,2.72 2.72,2.72 2.72,6.4 v 101.76 q 0,3.68 -2.72,6.4 -2.72,2.72 -6.4,2.72 z m 66.23994,1.6 q -14.08,0 -20.48004,-7.68 -6.4,-7.84 -6.4,-26.4 v -41.6 q 0,-3.68 2.72,-6.4 2.72,-2.72 6.4,-2.72 h 2.56004 q 3.68,0 6.4,2.72 2.72,2.72 2.72,6.4 v 39.36 q 0,11.2 3.04,15.52 3.04,4.32 10.24,4.32 6.56,0 12.16,-5.6 5.76,-5.6 5.76,-12 v -41.6 q 0,-3.68 2.72,-6.4 2.72,-2.72 6.4,-2.72 h 3.2 q 3.68,0 6.24,2.72 2.72,2.72 2.72,6.4 v 64.96 q 0,3.68 -2.72,6.4 -2.56,2.72 -6.24,2.72 h -2.08 q -3.84,0 -6.56,-2.56 -2.56,-2.72 -2.72,-6.56 l -0.16,-1.12 q 0,-0.16 -0.16,-0.16 -0.16,0 -0.32,0.16 -10.88,11.84 -25.44,11.84 z m 97.1199,-35.2 q -16.8,-3.68 -24,-10.08 -7.04,-6.4 -7.04,-16.64 0,-11.52 8.48,-17.92 8.64,-6.56 25.44,-6.56 10.56,0 20.96,1.92 3.52,0.64 5.6,3.52 2.24,2.72 2.24,6.4 0,3.04 -2.4,4.96 -2.4,1.76 -5.44,0.96 -8.96,-2.24 -18.88,-2.24 -14.4,0 -14.4,8 0,3.84 2.72,6.4 2.72,2.56 9.28,4 18.4,3.68 25.12,9.92 6.88,6.24 6.88,18.24 0,11.52 -8.64,17.92 -8.64,6.4 -25.12,6.4 -10.72,0 -21.92,-2.56 -3.52,-0.8 -5.76,-3.68 -2.24,-3.04 -2.24,-6.88 0,-3.04 2.4,-4.64 2.56,-1.6 5.44,-0.8 10.4,2.88 19.68,2.88 14.56,0 14.56,-8.64 0,-4.16 -2.88,-6.56 -2.72,-2.4 -10.08,-4.32 z"
         id="path2" />
    </g>
    <text
       xml:space="preserve"
       style="font-style:normal;font-variant:normal;font-weight:normal;font-stretch:normal;font-size:192px;font-family:'Lucida Console';-inkscape-font-specification:'Lucida Console, Normal';font-variant-ligatures:normal;font-variant-caps:normal;font-variant-numeric:normal;font-variant-east-asian:normal;text-align:start;writing-mode:lr-tb;direction:ltr;text-anchor:start;fill:#88b763;fill-opacity:1"
       x="2483.7983"
       y="2050.519"
       id="text3747"><tspan
         sodipodi:role="line"
         id="tspan3747"
         x="2483.7983"
         y="2050.519" /></text>
  </g>
</svg>
